<svg width="60" height="60" viewBox="0 0 60 60" fill="none" xmlns="http://www.w3.org/2000/svg">
<path d="M58.1734 33.9251C51.8701 24.2734 52.5401 14.3801 49.5018 9.72842C46.4634 5.07675 37.4084 -2.94325 16.0134 11.0317C-5.38158 25.0067 0.0600897 40.1984 3.40342 45.3134C19.0501 69.2667 69.3384 51.0184 58.1734 33.9251V33.9251Z" fill="#EEF6FC"/>
<path d="M16.2502 23.75V45.4167C16.2502 47.25 17.7502 48.75 19.5836 48.75H40.4169C42.2502 48.75 43.7502 47.25 43.7502 45.4167V23.75H16.2502Z" fill="#F3F3F1"/>
<path d="M47.0834 23.75H12.9167V19.5833C12.9167 17.7417 14.4084 16.25 16.2501 16.25H43.7501C45.5917 16.25 47.0834 17.7417 47.0834 19.5833V23.75Z" fill="#2B7EE4"/>
<path d="M20.0002 45.4167V23.75H16.2502V45.4167C16.2502 47.25 17.7502 48.75 19.5836 48.75H23.3336C21.5002 48.75 20.0002 47.25 20.0002 45.4167Z" fill="#D5DBE1"/>
<path d="M20.0001 16.25H16.2501C14.4084 16.25 12.9167 17.7417 12.9167 19.5833V23.75H16.6667V19.5833C16.6667 17.7417 18.1584 16.25 20.0001 16.25Z" fill="#2B7EE4"/>
<path d="M6.72754 7.9646L7.90605 6.78609L10.2631 9.14311L9.08456 10.3216L6.72754 7.9646Z" fill="#A4AFC1"/>
<path d="M6.43311 15.9165L8.79013 13.5595L9.96864 14.738L7.61162 17.095L6.43311 15.9165Z" fill="#A4AFC1"/>
<path d="M13.2087 9.14209L15.5658 6.78507L16.7443 7.96358L14.3873 10.3206L13.2087 9.14209Z" fill="#A4AFC1"/>
<path d="M46.2502 10.2417C44.8719 10.2417 43.7502 9.12003 43.7502 7.7417C43.7502 6.36337 44.8719 5.2417 46.2502 5.2417C47.6286 5.2417 48.7502 6.36337 48.7502 7.7417C48.7502 9.12003 47.6286 10.2417 46.2502 10.2417ZM46.2502 6.90837C45.7902 6.90837 45.4169 7.2817 45.4169 7.7417C45.4169 8.2017 45.7902 8.57503 46.2502 8.57503C46.7102 8.57503 47.0836 8.2017 47.0836 7.7417C47.0836 7.2817 46.7102 6.90837 46.2502 6.90837Z" fill="#A4AFC1"/>
<path d="M40.4167 50H19.5833C17.055 50 15 47.945 15 45.4167V23.75H17.5V45.4167C17.5 46.565 18.435 47.5 19.5833 47.5H40.4167C41.565 47.5 42.5 46.565 42.5 45.4167V23.75H45V45.4167C45 47.945 42.945 50 40.4167 50Z" fill="#0A2538"/>
<path d="M47.0832 25H39.1665V22.5H45.8332V19.5833C45.8332 18.435 44.8982 17.5 43.7498 17.5H16.2498C15.1015 17.5 14.1665 18.435 14.1665 19.5833V22.5H36.6665V25H12.9165C12.2265 25 11.6665 24.44 11.6665 23.75V19.5833C11.6665 17.055 13.7215 15 16.2498 15H43.7498C46.2782 15 48.3332 17.055 48.3332 19.5833V23.75C48.3332 24.44 47.7732 25 47.0832 25Z" fill="#0A2538"/>
<path d="M38.3332 16.25H35.8332V12.9167C35.8332 12.6867 35.6465 12.5 35.4165 12.5H24.5832C24.3532 12.5 24.1665 12.6867 24.1665 12.9167V16.25H21.6665V12.9167C21.6665 11.3083 22.9748 10 24.5832 10H35.4165C37.0248 10 38.3332 11.3083 38.3332 12.9167V16.25Z" fill="#0A2538"/>
<path d="M28.75 31.25H31.25V42.0833H28.75V31.25Z" fill="#0A2538"/>
<path d="M21.6665 31.25H24.1665V42.0833H21.6665V31.25Z" fill="#0A2538"/>
<path d="M35.8333 31.25H38.3333V42.0833H35.8333V31.25Z" fill="#0A2538"/>
<path d="M3.33325 47.5H56.6666V50H3.33325V47.5Z" fill="#0A2538"/>
</svg>
