<svg width="126" height="30" viewBox="0 0 126 30" fill="none" xmlns="http://www.w3.org/2000/svg">
<path d="M42.1905 23.3133C40.3941 23.3133 39.005 22.812 38.0232 21.8093C37.0414 20.8067 36.5505 19.3549 36.5505 17.454V8.14801H40.7805V17.36C40.7805 18.3418 41.0103 19.0625 41.4699 19.522C41.9503 19.9816 42.6814 20.2113 43.6632 20.2113C44.3734 20.2113 45.0314 20.0756 45.6372 19.804C46.2639 19.5116 46.807 19.1356 47.2665 18.676V8.14801H51.4965V23H47.5799L47.4232 21.59C45.9819 22.7389 44.2376 23.3133 42.1905 23.3133Z" fill="#576AE6"/>
<path d="M55.0972 8.14801H58.7632L58.9825 9.52668C59.651 8.96268 60.3716 8.5449 61.1445 8.27335C61.9174 7.9809 62.8156 7.83468 63.8392 7.83468C66.0743 7.83468 67.7663 8.44046 68.9152 9.65201C70.0641 10.8636 70.6385 12.7749 70.6385 15.386C70.6385 18.018 70.0223 20.0025 68.7898 21.3393C67.5574 22.6553 65.8236 23.3133 63.5885 23.3133C61.9174 23.3133 60.497 22.9373 59.3272 22.1853V29.768H55.0972V8.14801ZM62.5232 20.2113C63.7974 20.2113 64.7478 19.8249 65.3745 19.052C66.0221 18.2582 66.3458 17.0467 66.3458 15.4173C66.3458 13.8298 66.0534 12.6913 65.4685 12.002C64.8836 11.2918 63.9436 10.9367 62.6485 10.9367C61.3534 10.9367 60.2463 11.3858 59.3272 12.284V19.0833C59.8076 19.4593 60.2881 19.7413 60.7685 19.9293C61.2698 20.1173 61.8547 20.2113 62.5232 20.2113Z" fill="#576AE6"/>
<path d="M73.5789 8.14801H77.4956L77.6836 9.68335C78.373 9.24468 79.2085 8.85824 80.1903 8.52401C81.1721 8.18979 82.1434 7.96001 83.1043 7.83468V11.0307C82.2061 11.156 81.2452 11.3753 80.2216 11.6887C79.1981 11.9811 78.3938 12.2945 77.8089 12.6287V23H73.5789V8.14801Z" fill="#576AE6"/>
<path d="M94.1627 23.3133C93.1392 23.3133 92.2305 23.1776 91.4367 22.906C90.6639 22.6345 89.9536 22.2062 89.3061 21.6213L89.0867 23H85.4207V1.88135H89.6507V8.96268C90.8832 8.21068 92.3454 7.83468 94.0374 7.83468C96.2516 7.83468 97.9541 8.46135 99.1447 9.71468C100.356 10.9471 100.962 12.8585 100.962 15.4487C100.962 18.0598 100.367 20.0233 99.1761 21.3393C97.9854 22.6553 96.3143 23.3133 94.1627 23.3133ZM92.9721 20.2113C94.2881 20.2113 95.2281 19.8249 95.7921 19.052C96.377 18.2791 96.6694 17.078 96.6694 15.4487C96.6694 13.8193 96.377 12.66 95.7921 11.9707C95.2072 11.2813 94.2567 10.9367 92.9407 10.9367C92.2723 10.9367 91.6561 11.0307 91.0921 11.2187C90.5281 11.4067 90.0476 11.6782 89.6507 12.0333V18.864C90.0476 19.3027 90.5385 19.6369 91.1234 19.8667C91.7083 20.0965 92.3245 20.2113 92.9721 20.2113Z" fill="#576AE6"/>
<path d="M104.987 2.10068H109.593V5.42201H104.987V2.10068ZM105.332 11.2813H103.107L103.483 8.14801H109.562V23H105.332V11.2813Z" fill="#576AE6"/>
<path d="M112.547 20.8067L120.036 11.6573H112.861V8.14801H125.331V10.7173L117.999 19.7413H125.551V23H112.547V20.8067Z" fill="#576AE6"/>
<rect width="30" height="30" rx="4" fill="#576AE6"/>
<path d="M14.6265 25C12.0361 25 9.94779 24.6486 8.36145 23.9458V20.3614C9.26506 20.7229 10.2289 21.0141 11.253 21.2349C12.2771 21.4558 13.2711 21.5663 14.2349 21.5663C15.741 21.5663 16.7952 21.4257 17.3976 21.1446C18.0201 20.8635 18.3313 20.2811 18.3313 19.3976C18.3313 18.8153 18.1908 18.3534 17.9096 18.0121C17.6285 17.6707 17.1667 17.3795 16.5241 17.1386C15.8815 16.8775 14.8775 16.5562 13.512 16.1747C11.4839 15.6125 10.0582 14.9096 9.23494 14.0663C8.41165 13.2229 8 12.0582 8 10.5723C8 8.78514 8.65261 7.40964 9.95783 6.44578C11.2631 5.48193 13.1606 5 15.6506 5C16.7751 5 17.8394 5.08032 18.8434 5.24096C19.8675 5.38153 20.7008 5.57229 21.3434 5.81325V9.39759C19.6968 8.7751 17.9799 8.46386 16.1928 8.46386C14.8273 8.46386 13.8032 8.61446 13.1205 8.91566C12.4578 9.21687 12.1265 9.76908 12.1265 10.5723C12.1265 11.0743 12.247 11.4759 12.488 11.7771C12.749 12.0783 13.1707 12.3494 13.753 12.5904C14.3554 12.8112 15.2791 13.0823 16.5241 13.4036C18.7731 14.006 20.3293 14.7892 21.1928 15.753C22.0562 16.6968 22.488 17.9116 22.488 19.3976C22.488 21.1446 21.8253 22.5201 20.5 23.5241C19.1747 24.508 17.2169 25 14.6265 25Z" fill="white"/>
</svg>
