<svg width="30" height="30" viewBox="0 0 30 30" fill="none" xmlns="http://www.w3.org/2000/svg">
<rect width="30" height="30" rx="4" fill="#576AE6"/>
<path d="M14.6265 25C12.0361 25 9.94779 24.6486 8.36145 23.9458V20.3614C9.26506 20.7229 10.2289 21.0141 11.253 21.2349C12.2771 21.4558 13.2711 21.5663 14.2349 21.5663C15.741 21.5663 16.7952 21.4257 17.3976 21.1446C18.0201 20.8635 18.3313 20.2811 18.3313 19.3976C18.3313 18.8153 18.1908 18.3534 17.9096 18.0121C17.6285 17.6707 17.1667 17.3795 16.5241 17.1386C15.8815 16.8775 14.8775 16.5562 13.512 16.1747C11.4839 15.6125 10.0582 14.9096 9.23494 14.0663C8.41165 13.2229 8 12.0582 8 10.5723C8 8.78514 8.65261 7.40964 9.95783 6.44578C11.2631 5.48193 13.1606 5 15.6506 5C16.7751 5 17.8394 5.08032 18.8434 5.24096C19.8675 5.38153 20.7008 5.57229 21.3434 5.81325V9.39759C19.6968 8.7751 17.9799 8.46386 16.1928 8.46386C14.8273 8.46386 13.8032 8.61446 13.1205 8.91566C12.4578 9.21687 12.1265 9.76908 12.1265 10.5723C12.1265 11.0743 12.247 11.4759 12.488 11.7771C12.749 12.0783 13.1707 12.3494 13.753 12.5904C14.3554 12.8112 15.2791 13.0823 16.5241 13.4036C18.7731 14.006 20.3293 14.7892 21.1928 15.753C22.0562 16.6968 22.488 17.9116 22.488 19.3976C22.488 21.1446 21.8253 22.5201 20.5 23.5241C19.1747 24.508 17.2169 25 14.6265 25Z" fill="white"/>
</svg>
