<svg width="90" height="23" viewBox="0 0 90 23" fill="none" xmlns="http://www.w3.org/2000/svg">
<path d="M28.7395 17.603C27.4221 17.603 26.4034 17.2354 25.6835 16.5001C24.9635 15.7648 24.6035 14.7002 24.6035 13.3062V6.48179H27.7055V13.2373C27.7055 13.9572 27.874 14.4857 28.211 14.8227C28.5634 15.1597 29.0995 15.3282 29.8195 15.3282C30.3403 15.3282 30.8228 15.2287 31.2671 15.0295C31.7266 14.8151 32.1249 14.5393 32.4619 14.2023V6.48179H35.5639V17.3733H32.6917L32.5768 16.3393C31.5198 17.1818 30.2407 17.603 28.7395 17.603Z" fill="white"/>
<path d="M38.2044 6.48179H40.8928L41.0536 7.49281C41.5438 7.07921 42.0723 6.77284 42.6391 6.5737C43.2059 6.35924 43.8646 6.25201 44.6152 6.25201C46.2543 6.25201 47.4951 6.69625 48.3376 7.58472C49.1801 8.47319 49.6014 9.87484 49.6014 11.7897C49.6014 13.7198 49.1495 15.175 48.2457 16.1554C47.3419 17.1205 46.0704 17.603 44.4314 17.603C43.2059 17.603 42.1642 17.3273 41.3064 16.7758V22.3365H38.2044V6.48179ZM43.6501 15.3282C44.5845 15.3282 45.2815 15.0448 45.7411 14.4781C46.216 13.8959 46.4534 13.0075 46.4534 11.8126C46.4534 10.6484 46.2389 9.81356 45.81 9.30805C45.3811 8.78722 44.6918 8.52681 43.742 8.52681C42.7923 8.52681 41.9804 8.85616 41.3064 9.51485V14.501C41.6587 14.7768 42.011 14.9836 42.3634 15.1214C42.731 15.2593 43.1599 15.3282 43.6501 15.3282Z" fill="white"/>
<path d="M51.7577 6.48179H54.6299L54.7678 7.6077C55.2733 7.28601 55.886 7.00262 56.606 6.75752C57.326 6.51242 58.0383 6.34392 58.7429 6.25201V8.59574C58.0842 8.68765 57.3796 8.8485 56.629 9.07827C55.8784 9.29273 55.2886 9.52251 54.8597 9.76761V17.3733H51.7577V6.48179Z" fill="white"/>
<path d="M66.8525 17.603C66.1019 17.603 65.4355 17.5035 64.8534 17.3043C64.2866 17.1052 63.7658 16.7912 63.2909 16.3622L63.1301 17.3733H60.4417V1.88623H63.5437V7.07921C64.4475 6.52774 65.5198 6.25201 66.7606 6.25201C68.3843 6.25201 69.6328 6.71156 70.5059 7.63067C71.3944 8.53447 71.8386 9.93611 71.8386 11.8356C71.8386 13.7504 71.4021 15.1904 70.5289 16.1554C69.6558 17.1205 68.4303 17.603 66.8525 17.603ZM65.9793 15.3282C66.9444 15.3282 67.6337 15.0448 68.0473 14.4781C68.4762 13.9113 68.6907 13.0305 68.6907 11.8356C68.6907 10.6408 68.4762 9.79059 68.0473 9.28508C67.6184 8.77956 66.9214 8.52681 65.9563 8.52681C65.4661 8.52681 65.0142 8.59574 64.6006 8.73361C64.187 8.87147 63.8347 9.07062 63.5437 9.33103V14.3402C63.8347 14.6619 64.1947 14.907 64.6236 15.0755C65.0525 15.244 65.5044 15.3282 65.9793 15.3282Z" fill="white"/>
<path d="M74.7902 2.04707H78.168V4.48272H74.7902V2.04707ZM75.043 8.77956H73.4116L73.6873 6.48179H78.145V17.3733H75.043V8.77956Z" fill="white"/>
<path d="M80.3345 15.7648L85.8262 9.0553H80.5643V6.48179H89.7094V8.36596L84.3326 14.9836H89.8703V17.3733H80.3345V15.7648Z" fill="white"/>
<rect y="0.506348" width="22" height="22" rx="2" fill="white"/>
<path d="M10.7261 18.84C8.82654 18.84 7.29508 18.5823 6.13176 18.0669V15.4384C6.79441 15.7035 7.50124 15.917 8.25224 16.079C9.00325 16.2409 9.73216 16.3219 10.439 16.3219C11.5434 16.3219 12.3165 16.2189 12.7583 16.0127C13.2148 15.8065 13.443 15.3795 13.443 14.7316C13.443 14.3045 13.3399 13.9658 13.1338 13.7155C12.9276 13.4652 12.5889 13.2517 12.1177 13.0749C11.6465 12.8835 10.9102 12.6479 9.90887 12.3681C8.42159 11.9558 7.37607 11.4404 6.77232 10.8219C6.16857 10.2035 5.8667 9.34938 5.8667 8.25969C5.8667 6.94911 6.34528 5.94041 7.30244 5.23358C8.2596 4.52675 9.65117 4.17334 11.4771 4.17334C12.3018 4.17334 13.0822 4.23224 13.8185 4.35005C14.5695 4.45313 15.1806 4.59302 15.6518 4.76973V7.39824C14.4443 6.94175 13.1853 6.7135 11.8747 6.7135C10.8734 6.7135 10.1224 6.82394 9.62172 7.04483C9.13578 7.26571 8.8928 7.67066 8.8928 8.25969C8.8928 8.62783 8.98116 8.92234 9.15786 9.14322C9.3493 9.3641 9.65853 9.5629 10.0856 9.73961C10.5273 9.90159 11.2047 10.1004 12.1177 10.336C13.767 10.7778 14.9082 11.3521 15.5414 12.0589C16.1746 12.751 16.4912 13.6419 16.4912 14.7316C16.4912 16.0127 16.0053 17.0214 15.0334 17.7577C14.0615 18.4792 12.6257 18.84 10.7261 18.84Z" fill="#1860B9"/>
</svg>
